<?xml version="1.0" encoding="UTF-8"?>
<svg version="1.1" xmlns="http://www.w3.org/2000/svg" width="826" height="620">
<path d="M0 0 C272.58 0 545.16 0 826 0 C826 204.6 826 409.2 826 620 C553.42 620 280.84 620 0 620 C0 415.4 0 210.8 0 0 Z " fill="#EBECF0" transform="translate(0,0)"/>
<path d="M0 0 C17.16 0 34.32 0 52 0 C52 17.16 52 34.32 52 52 C34.84 52 17.68 52 0 52 C0 34.84 0 17.68 0 0 Z " fill="#EEEFF3" transform="translate(174,18)"/>
<path d="M0 0 C17.16 0 34.32 0 52 0 C52 17.16 52 34.32 52 52 C43.605625 52.020625 35.21125 52.04125 26.5625 52.0625 C23.90904541 52.071604 21.25559082 52.08070801 18.52172852 52.09008789 C16.43245494 52.09300686 14.34318081 52.09555546 12.25390625 52.09765625 C11.15784058 52.10277222 10.0617749 52.10788818 8.93249512 52.11315918 C7.89717651 52.11328003 6.86185791 52.11340088 5.79516602 52.11352539 C4.43948265 52.11685631 4.43948265 52.11685631 3.05641174 52.12025452 C1 52 1 52 0 51 C-0.09333705 49.40389018 -0.11745372 47.80366572 -0.11352539 46.20483398 C-0.11340454 45.16951538 -0.11328369 44.13419678 -0.11315918 43.06750488 C-0.10804321 41.97143921 -0.10292725 40.87537354 -0.09765625 39.74609375 C-0.09664917 38.74453247 -0.09564209 37.74297119 -0.09460449 36.71105957 C-0.08935429 32.95319481 -0.07539317 29.19534631 -0.0625 25.4375 C-0.041875 17.043125 -0.02125 8.64875 0 0 Z " fill="#EEEFF3" transform="translate(438,18)"/>
<path d="M0 0 C51.81 0 103.62 0 157 0 C157 5.61 157 11.22 157 17 C105.19 17 53.38 17 0 17 C0 11.39 0 5.78 0 0 Z " fill="#ECEDF1" transform="translate(16,0)"/>
<path d="M0 0 C16.83 0 33.66 0 51 0 C51 17.16 51 34.32 51 52 C34.17 52 17.34 52 0 52 C0 34.84 0 17.68 0 0 Z " fill="#EEEFF3" transform="translate(69,546)"/>
<path d="M0 0 C16.83 0 33.66 0 51 0 C51 17.16 51 34.32 51 52 C34.17 52 17.34 52 0 52 C0 34.84 0 17.68 0 0 Z " fill="#EFEFF4" transform="translate(16,546)"/>
<path d="M0 0 C17.16 0 34.32 0 52 0 C52 16.83 52 33.66 52 51 C34.84 51 17.68 51 0 51 C0 34.17 0 17.34 0 0 Z " fill="#EFF0F4" transform="translate(702,441)"/>
<path d="M0 0 C17.16 0 34.32 0 52 0 C52 16.83 52 33.66 52 51 C34.84 51 17.68 51 0 51 C0 34.17 0 17.34 0 0 Z " fill="#EFF0F4" transform="translate(702,388)"/>
<path d="M0 0 C16.83 0 33.66 0 51 0 C51 17.16 51 34.32 51 52 C34.17 52 17.34 52 0 52 C0 34.84 0 17.68 0 0 Z " fill="#EFF0F4" transform="translate(597,282)"/>
<path d="M0 0 C16.83 0 33.66 0 51 0 C51 17.16 51 34.32 51 52 C34.17 52 17.34 52 0 52 C0 34.84 0 17.68 0 0 Z " fill="#EFF0F4" transform="translate(386,282)"/>
<path d="M0 0 C16.83 0 33.66 0 51 0 C51 17.16 51 34.32 51 52 C34.17 52 17.34 52 0 52 C0 34.84 0 17.68 0 0 Z " fill="#EFF0F4" transform="translate(597,229)"/>
<path d="M0 0 C16.83 0 33.66 0 51 0 C51 17.16 51 34.32 51 52 C34.17 52 17.34 52 0 52 C0 34.84 0 17.68 0 0 Z " fill="#EFF0F4" transform="translate(544,229)"/>
<path d="M0 0 C17.16 0 34.32 0 52 0 C52 16.83 52 33.66 52 51 C34.84 51 17.68 51 0 51 C0 34.17 0 17.34 0 0 Z " fill="#EFF0F4" transform="translate(702,177)"/>
<path d="M0 0 C17.16 0 34.32 0 52 0 C52 16.83 52 33.66 52 51 C34.84 51 17.68 51 0 51 C0 34.17 0 17.34 0 0 Z " fill="#EEEFF3" transform="translate(174,71)"/>
<path d="M0 0 C16.83 0 33.66 0 51 0 C51 16.83 51 33.66 51 51 C34.17 51 17.34 51 0 51 C0 34.17 0 17.34 0 0 Z " fill="#EFF0F4" transform="translate(122,494)"/>
<path d="M0 0 C16.83 0 33.66 0 51 0 C51 16.83 51 33.66 51 51 C34.17 51 17.34 51 0 51 C0 34.17 0 17.34 0 0 Z " fill="#F0F0F5" transform="translate(650,441)"/>
<path d="M0 0 C16.83 0 33.66 0 51 0 C51 16.83 51 33.66 51 51 C34.17 51 17.34 51 0 51 C0 34.17 0 17.34 0 0 Z " fill="#F0F0F5" transform="translate(597,441)"/>
<path d="M0 0 C16.83 0 33.66 0 51 0 C51 16.83 51 33.66 51 51 C34.17 51 17.34 51 0 51 C0 34.17 0 17.34 0 0 Z " fill="#EFF0F4" transform="translate(491,441)"/>
<path d="M0 0 C16.83 0 33.66 0 51 0 C51 16.83 51 33.66 51 51 C34.17 51 17.34 51 0 51 C0 34.17 0 17.34 0 0 Z " fill="#F0F1F5" transform="translate(333,441)"/>
<path d="M0 0 C16.83 0 33.66 0 51 0 C51 16.83 51 33.66 51 51 C34.17 51 17.34 51 0 51 C0 34.17 0 17.34 0 0 Z " fill="#EFF0F4" transform="translate(280,441)"/>
<path d="M0 0 C16.83 0 33.66 0 51 0 C51 16.83 51 33.66 51 51 C34.17 51 17.34 51 0 51 C0 34.17 0 17.34 0 0 Z " fill="#EFF0F4" transform="translate(227,441)"/>
<path d="M0 0 C16.83 0 33.66 0 51 0 C51 16.83 51 33.66 51 51 C34.17 51 17.34 51 0 51 C0 34.17 0 17.34 0 0 Z " fill="#EFF0F4" transform="translate(122,441)"/>
<path d="M0 0 C16.83 0 33.66 0 51 0 C51 16.83 51 33.66 51 51 C34.17 51 17.34 51 0 51 C0 34.17 0 17.34 0 0 Z " fill="#F0F1F5" transform="translate(69,441)"/>
<path d="M0 0 C16.83 0 33.66 0 51 0 C51 16.83 51 33.66 51 51 C34.17 51 17.34 51 0 51 C0 34.17 0 17.34 0 0 Z " fill="#F0F0F4" transform="translate(16,441)"/>
<path d="M0 0 C16.83 0 33.66 0 51 0 C51 16.83 51 33.66 51 51 C34.17 51 17.34 51 0 51 C0 34.17 0 17.34 0 0 Z " fill="#F0F1F5" transform="translate(386,441)"/>
<path d="M0 0 C16.83 0 33.66 0 51 0 C51 16.83 51 33.66 51 51 C34.17 51 17.34 51 0 51 C0 34.17 0 17.34 0 0 Z " fill="#F0F0F5" transform="translate(597,388)"/>
<path d="M0 0 C16.83 0 33.66 0 51 0 C51 16.83 51 33.66 51 51 C34.17 51 17.34 51 0 51 C0 34.17 0 17.34 0 0 Z " fill="#EFF0F4" transform="translate(544,388)"/>
<path d="M0 0 C16.83 0 33.66 0 51 0 C51 16.83 51 33.66 51 51 C34.17 51 17.34 51 0 51 C0 34.17 0 17.34 0 0 Z " fill="#EFF0F4" transform="translate(333,388)"/>
<path d="M0 0 C16.83 0 33.66 0 51 0 C51 16.83 51 33.66 51 51 C34.17 51 17.34 51 0 51 C0 34.17 0 17.34 0 0 Z " fill="#EFF0F4" transform="translate(280,388)"/>
<path d="M0 0 C16.83 0 33.66 0 51 0 C51 16.83 51 33.66 51 51 C34.17 51 17.34 51 0 51 C0 34.17 0 17.34 0 0 Z " fill="#EFF0F4" transform="translate(227,388)"/>
<path d="M0 0 C16.83 0 33.66 0 51 0 C51 16.83 51 33.66 51 51 C34.17 51 17.34 51 0 51 C0 34.17 0 17.34 0 0 Z " fill="#F0F1F5" transform="translate(69,388)"/>
<path d="M0 0 C16.83 0 33.66 0 51 0 C51 16.83 51 33.66 51 51 C34.17 51 17.34 51 0 51 C0 34.17 0 17.34 0 0 Z " fill="#EFF0F4" transform="translate(755,388)"/>
<path d="M0 0 C16.83 0 33.66 0 51 0 C51 16.83 51 33.66 51 51 C34.17 51 17.34 51 0 51 C0 34.17 0 17.34 0 0 Z " fill="#F1F0F5" transform="translate(650,388)"/>
<path d="M0 0 C16.83 0 33.66 0 51 0 C51 16.83 51 33.66 51 51 C34.17 51 17.34 51 0 51 C0 34.17 0 17.34 0 0 Z " fill="#EFF0F4" transform="translate(491,388)"/>
<path d="M0 0 C16.83 0 33.66 0 51 0 C51 16.83 51 33.66 51 51 C34.17 51 17.34 51 0 51 C0 34.17 0 17.34 0 0 Z " fill="#F0F1F5" transform="translate(386,388)"/>
<path d="M0 0 C16.83 0 33.66 0 51 0 C51 16.83 51 33.66 51 51 C34.17 51 17.34 51 0 51 C0 34.17 0 17.34 0 0 Z " fill="#EFF0F4" transform="translate(122,388)"/>
<path d="M0 0 C16.83 0 33.66 0 51 0 C51 16.83 51 33.66 51 51 C34.17 51 17.34 51 0 51 C0 34.17 0 17.34 0 0 Z " fill="#F0F0F5" transform="translate(16,388)"/>
<path d="M0 0 C16.83 0 33.66 0 51 0 C51 16.83 51 33.66 51 51 C34.17 51 17.34 51 0 51 C0 34.17 0 17.34 0 0 Z " fill="#EFF0F4" transform="translate(755,335)"/>
<path d="M0 0 C16.83 0 33.66 0 51 0 C51 16.83 51 33.66 51 51 C34.17 51 17.34 51 0 51 C0 34.17 0 17.34 0 0 Z " fill="#F0EFF4" transform="translate(650,335)"/>
<path d="M0 0 C16.83 0 33.66 0 51 0 C51 16.83 51 33.66 51 51 C34.17 51 17.34 51 0 51 C0 34.17 0 17.34 0 0 Z " fill="#EFF0F4" transform="translate(597,335)"/>
<path d="M0 0 C16.83 0 33.66 0 51 0 C51 16.83 51 33.66 51 51 C34.17 51 17.34 51 0 51 C0 34.17 0 17.34 0 0 Z " fill="#EFF0F4" transform="translate(544,335)"/>
<path d="M0 0 C16.83 0 33.66 0 51 0 C51 16.83 51 33.66 51 51 C34.17 51 17.34 51 0 51 C0 34.17 0 17.34 0 0 Z " fill="#EFF0F4" transform="translate(491,335)"/>
<path d="M0 0 C16.83 0 33.66 0 51 0 C51 16.83 51 33.66 51 51 C34.17 51 17.34 51 0 51 C0 34.17 0 17.34 0 0 Z " fill="#F0F1F5" transform="translate(386,335)"/>
<path d="M0 0 C16.83 0 33.66 0 51 0 C51 16.83 51 33.66 51 51 C34.17 51 17.34 51 0 51 C0 34.17 0 17.34 0 0 Z " fill="#EFF0F4" transform="translate(333,335)"/>
<path d="M0 0 C16.83 0 33.66 0 51 0 C51 16.83 51 33.66 51 51 C34.17 51 17.34 51 0 51 C0 34.17 0 17.34 0 0 Z " fill="#EFF0F4" transform="translate(280,335)"/>
<path d="M0 0 C16.83 0 33.66 0 51 0 C51 16.83 51 33.66 51 51 C34.17 51 17.34 51 0 51 C0 34.17 0 17.34 0 0 Z " fill="#EFF0F4" transform="translate(122,335)"/>
<path d="M0 0 C16.83 0 33.66 0 51 0 C51 16.83 51 33.66 51 51 C34.17 51 17.34 51 0 51 C0 34.17 0 17.34 0 0 Z " fill="#EFF0F4" transform="translate(69,335)"/>
<path d="M0 0 C16.83 0 33.66 0 51 0 C51 16.83 51 33.66 51 51 C34.17 51 17.34 51 0 51 C0 34.17 0 17.34 0 0 Z " fill="#EFEFF4" transform="translate(16,335)"/>
<path d="M0 0 C16.83 0 33.66 0 51 0 C51 16.83 51 33.66 51 51 C34.17 51 17.34 51 0 51 C0 34.17 0 17.34 0 0 Z " fill="#EFF0F4" transform="translate(69,282)"/>
<path d="M0 0 C16.83 0 33.66 0 51 0 C51 16.83 51 33.66 51 51 C34.17 51 17.34 51 0 51 C0 34.17 0 17.34 0 0 Z " fill="#EFF0F4" transform="translate(650,177)"/>
<path d="M0 0 C16.83 0 33.66 0 51 0 C51 16.83 51 33.66 51 51 C34.17 51 17.34 51 0 51 C0 34.17 0 17.34 0 0 Z " fill="#EFF0F4" transform="translate(597,177)"/>
<path d="M0 0 C16.83 0 33.66 0 51 0 C51 16.83 51 33.66 51 51 C34.17 51 17.34 51 0 51 C0 34.17 0 17.34 0 0 Z " fill="#EFF0F4" transform="translate(544,177)"/>
<path d="M0 0 C16.83 0 33.66 0 51 0 C51 16.83 51 33.66 51 51 C34.17 51 17.34 51 0 51 C0 34.17 0 17.34 0 0 Z " fill="#EFF0F4" transform="translate(280,177)"/>
<path d="M0 0 C16.83 0 33.66 0 51 0 C51 16.83 51 33.66 51 51 C34.17 51 17.34 51 0 51 C0 34.17 0 17.34 0 0 Z " fill="#F0F1F5" transform="translate(386,177)"/>
<path d="M0 0 C16.83 0 33.66 0 51 0 C51 16.83 51 33.66 51 51 C34.17 51 17.34 51 0 51 C0 34.17 0 17.34 0 0 Z " fill="#EFF0F4" transform="translate(333,177)"/>
<path d="M0 0 C16.83 0 33.66 0 51 0 C51 16.83 51 33.66 51 51 C34.17 51 17.34 51 0 51 C0 34.17 0 17.34 0 0 Z " fill="#F0F1F5" transform="translate(597,124)"/>
<path d="M0 0 C16.83 0 33.66 0 51 0 C51 16.83 51 33.66 51 51 C34.17 51 17.34 51 0 51 C0 34.17 0 17.34 0 0 Z " fill="#F0F1F5" transform="translate(544,124)"/>
<path d="M0 0 C16.83 0 33.66 0 51 0 C51 16.83 51 33.66 51 51 C34.17 51 17.34 51 0 51 C0 34.17 0 17.34 0 0 Z " fill="#EFF0F4" transform="translate(333,124)"/>
<path d="M0 0 C16.83 0 33.66 0 51 0 C51 16.83 51 33.66 51 51 C34.17 51 17.34 51 0 51 C0 34.17 0 17.34 0 0 Z " fill="#EFF0F4" transform="translate(280,124)"/>
<path d="M0 0 C16.83 0 33.66 0 51 0 C51 16.83 51 33.66 51 51 C34.17 51 17.34 51 0 51 C0 34.17 0 17.34 0 0 Z " fill="#EFF0F4" transform="translate(650,124)"/>
<path d="M0 0 C16.83 0 33.66 0 51 0 C51 16.83 51 33.66 51 51 C34.17 51 17.34 51 0 51 C0 34.17 0 17.34 0 0 Z " fill="#F0F1F5" transform="translate(386,124)"/>
<path d="M0 0 C16.83 0 33.66 0 51 0 C51 16.83 51 33.66 51 51 C34.17 51 17.34 51 0 51 C0 34.17 0 17.34 0 0 Z " fill="#F0F1F5" transform="translate(650,71)"/>
<path d="M0 0 C16.83 0 33.66 0 51 0 C51 16.83 51 33.66 51 51 C34.17 51 17.34 51 0 51 C0 34.17 0 17.34 0 0 Z " fill="#F0F1F5" transform="translate(386,71)"/>
<path d="M0 0 C16.83 0 33.66 0 51 0 C51 16.83 51 33.66 51 51 C34.17 51 17.34 51 0 51 C0 34.17 0 17.34 0 0 Z " fill="#EFF0F4" transform="translate(333,71)"/>
<path d="M0 0 C16.83 0 33.66 0 51 0 C51 16.83 51 33.66 51 51 C34.17 51 17.34 51 0 51 C0 34.17 0 17.34 0 0 Z " fill="#EFF0F4" transform="translate(280,71)"/>
<path d="M0 0 C16.83 0 33.66 0 51 0 C51 16.83 51 33.66 51 51 C34.17 51 17.34 51 0 51 C0 34.17 0 17.34 0 0 Z " fill="#EFF0F4" transform="translate(122,71)"/>
<path d="M0 0 C16.83 0 33.66 0 51 0 C51 16.83 51 33.66 51 51 C34.17 51 17.34 51 0 51 C0 34.17 0 17.34 0 0 Z " fill="#EFF0F4" transform="translate(69,71)"/>
<path d="M0 0 C16.83 0 33.66 0 51 0 C51 16.83 51 33.66 51 51 C34.17 51 17.34 51 0 51 C0 34.17 0 17.34 0 0 Z " fill="#EFF0F4" transform="translate(16,71)"/>
<path d="M0 0 C16.83 0 33.66 0 51 0 C51 16.83 51 33.66 51 51 C34.17 51 17.34 51 0 51 C0 34.17 0 17.34 0 0 Z " fill="#EFF0F4" transform="translate(333,18)"/>
<path d="M0 0 C16.83 0 33.66 0 51 0 C51 16.83 51 33.66 51 51 C34.17 51 17.34 51 0 51 C0 34.17 0 17.34 0 0 Z " fill="#EFF0F4" transform="translate(69,18)"/>
<path d="M0 0 C16.83 0 33.66 0 51 0 C51 16.83 51 33.66 51 51 C34.17 51 17.34 51 0 51 C0 34.17 0 17.34 0 0 Z " fill="#F0F1F4" transform="translate(755,18)"/>
<path d="M0 0 C16.83 0 33.66 0 51 0 C51 16.83 51 33.66 51 51 C34.17 51 17.34 51 0 51 C0 34.17 0 17.34 0 0 Z " fill="#EFF0F4" transform="translate(650,18)"/>
<path d="M0 0 C16.83 0 33.66 0 51 0 C51 16.83 51 33.66 51 51 C34.17 51 17.34 51 0 51 C0 34.17 0 17.34 0 0 Z " fill="#EFF0F4" transform="translate(597,18)"/>
<path d="M0 0 C16.83 0 33.66 0 51 0 C51 16.83 51 33.66 51 51 C34.17 51 17.34 51 0 51 C0 34.17 0 17.34 0 0 Z " fill="#EEEFF3" transform="translate(491,18)"/>
<path d="M0 0 C16.83 0 33.66 0 51 0 C51 16.83 51 33.66 51 51 C34.17 51 17.34 51 0 51 C0 34.17 0 17.34 0 0 Z " fill="#EFF0F4" transform="translate(386,18)"/>
<path d="M0 0 C16.83 0 33.66 0 51 0 C51 16.83 51 33.66 51 51 C34.17 51 17.34 51 0 51 C0 34.17 0 17.34 0 0 Z " fill="#EFF0F4" transform="translate(122,18)"/>
<path d="M0 0 C16.83 0 33.66 0 51 0 C51 16.83 51 33.66 51 51 C34.17 51 17.34 51 0 51 C0 34.17 0 17.34 0 0 Z " fill="#EFF0F4" transform="translate(16,18)"/>
<path d="M0 0 C0.66 0 1.32 0 2 0 C2 16.83 2 33.66 2 51 C18.83 51 35.66 51 53 51 C53 34.5 53 18 53 1 C53.66 0.67 54.32 0.34 55 0 C55 17.16 55 34.32 55 52 C71.83 52 88.66 52 106 52 C106 35.17 106 18.34 106 1 C106.33 1 106.66 1 107 1 C107.33 17.5 107.66 34 108 51 C113.61 51.33 119.22 51.66 125 52 C125 52.33 125 52.66 125 53 C119.06 53 113.12 53 107 53 C107 69.83 107 86.66 107 104 C124.16 104 141.32 104 159 104 C158.67 104.66 158.34 105.32 158 106 C141.17 106 124.34 106 107 106 C107 122.83 107 139.66 107 157 C124.16 157 141.32 157 159 157 C159 157.66 159 158.32 159 159 C141.84 159 124.68 159 107 159 C106.67 159.66 106.34 160.32 106 161 C106 160.34 106 159.68 106 159 C89.17 159 72.34 159 55 159 C55 175.83 55 192.66 55 210 C69.9134704 209.96047074 69.9134704 209.96047074 84.8269043 209.90991211 C86.70100854 209.90699061 88.57511341 209.9044426 90.44921875 209.90234375 C91.41686157 209.89722778 92.38450439 209.89211182 93.38146973 209.88684082 C94.31479126 209.88671997 95.24811279 209.88659912 96.2097168 209.88647461 C97.0157988 209.884254 97.8218808 209.88203339 98.65238953 209.87974548 C101.18086474 210.00926466 103.53226148 210.44726175 106 211 C106 211.33 106 211.66 106 212 C89.17 212 72.34 212 55 212 C55 228.83 55 245.66 55 263 C54.34 263 53.68 263 53 263 C53 245.84 53 228.68 53 211 C36.17 211 19.34 211 2 211 C2 228.16 2 245.32 2 263 C1.34 263 0.68 263 0 263 C0 245.84 0 228.68 0 211 C-16.5 211 -33 211 -50 211 C-50 210.67 -50 210.34 -50 210 C-33.5 210 -17 210 0 210 C0 193.17 0 176.34 0 159 C-16.83 159 -33.66 159 -51 159 C-51 158.34 -51 157.68 -51 157 C-34.17 157 -17.34 157 0 157 C0 140.17 0 123.34 0 106 C-16.03595573 106.07918137 -16.03595573 106.07918137 -32.07177734 106.18017578 C-34.07649524 106.18601492 -36.0812155 106.19111184 -38.0859375 106.1953125 C-39.13370361 106.20554443 -40.18146973 106.21577637 -41.26098633 106.22631836 C-42.75287476 106.22668091 -42.75287476 106.22668091 -44.27490234 106.22705078 C-45.57396011 106.23371262 -45.57396011 106.23371262 -46.89926147 106.24050903 C-49 106 -49 106 -51 104 C-34.17 104 -17.34 104 0 104 C0 87.17 0 70.34 0 53 C-0.99 52.505 -0.99 52.505 -2 52 C-1.34 52 -0.68 52 0 52 C0 34.84 0 17.68 0 0 Z M2 53 C2 69.83 2 86.66 2 104 C18.83 104 35.66 104 53 104 C53 87.17 53 70.34 53 53 C36.17 53 19.34 53 2 53 Z M55 53 C55 69.83 55 86.66 55 104 C71.83 104 88.66 104 106 104 C106 87.17 106 70.34 106 53 C89.17 53 72.34 53 55 53 Z M2 106 C2 122.83 2 139.66 2 157 C18.83 157 35.66 157 53 157 C53 140.17 53 123.34 53 106 C36.17 106 19.34 106 2 106 Z M55 106 C55 122.83 55 139.66 55 157 C71.83 157 88.66 157 106 157 C106 140.17 106 123.34 106 106 C89.17 106 72.34 106 55 106 Z M2 159 C2 175.83 2 192.66 2 210 C18.83 210 35.66 210 53 210 C53 193.17 53 176.34 53 159 C36.17 159 19.34 159 2 159 Z " fill="#C1C2C6" transform="translate(67,282)"/>
<path d="M0 0 C0.33 0.66 0.66 1.32 1 2 C18.16 2 35.32 2 53 2 C52.67 2.66 52.34 3.32 52 4 C35.17 4 18.34 4 1 4 C1 20.83 1 37.66 1 55 C18.16 55 35.32 55 53 55 C53 55.66 53 56.32 53 57 C35.84 57 18.68 57 1 57 C1 73.83 1 90.66 1 108 C18.16 108 35.32 108 53 108 C53 91.83 53 75.66 53 59 C53.33 59 53.66 59 54 59 C54 75.17 54 91.34 54 108 C70.83 108 87.66 108 105 108 C105 108.33 105 108.66 105 109 C88.5 109.33 72 109.66 55 110 C54.67 126.83 54.34 143.66 54 161 C77.43 161 100.86 161 125 161 C125 161.33 125 161.66 125 162 C119.06 162 113.12 162 107 162 C107 179.16 107 196.32 107 214 C106.34 214 105.68 214 105 214 C105 196.84 105 179.68 105 162 C88.17 162 71.34 162 54 162 C54 178.83 54 195.66 54 213 C53.67 213 53.34 213 53 213 C53 196.17 53 179.34 53 162 C35.84 162 18.68 162 1 162 C1 178.83 1 195.66 1 213 C0.67 213 0.34 213 0 213 C0 196.17 0 179.34 0 162 C-25.245 162.495 -25.245 162.495 -51 163 C-51.33 179.5 -51.66 196 -52 213 C-52.33 213 -52.66 213 -53 213 C-53 196.17 -53 179.34 -53 162 C-69.83 162 -86.66 162 -104 162 C-104 179.16 -104 196.32 -104 214 C-104.66 214 -105.32 214 -106 214 C-106 196.84 -106 179.68 -106 162 C-122.83 162 -139.66 162 -157 162 C-157 178.83 -157 195.66 -157 213 C-157.33 213 -157.66 213 -158 213 C-158.33 196.5 -158.66 180 -159 163 C-183.75 162.505 -183.75 162.505 -209 162 C-209 161.67 -209 161.34 -209 161 C-192.17 161 -175.34 161 -158 161 C-158 125.69 -158 90.38 -158 54 C-157.67 54 -157.34 54 -157 54 C-157 89.31 -157 124.62 -157 161 C-105.19 161 -53.38 161 0 161 C-0.08378906 149.62917969 -0.16757812 138.25835937 -0.25390625 126.54296875 C-0.30459675 119.3561231 -0.35503039 112.16927719 -0.40429688 104.98242188 C-0.48261012 93.56532468 -0.56199729 82.14824193 -0.64819336 70.73120117 C-0.71095649 62.41731563 -0.77016004 54.10341375 -0.82505554 45.7894724 C-0.85425827 41.38567254 -0.88526621 36.9819018 -0.92053413 32.57814598 C-0.95365314 28.43570223 -0.98202325 24.29325346 -1.00670624 20.15075111 C-1.01662408 18.62813187 -1.02829668 17.10552292 -1.04183006 15.58293152 C-1.06001102 13.50830453 -1.07194831 11.43373326 -1.08229065 9.35905457 C-1.09473485 7.61548314 -1.09473485 7.61548314 -1.10743046 5.83668804 C-1 3 -1 3 0 0 Z M1 110 C1 126.83 1 143.66 1 161 C18.16 161 35.32 161 53 161 C53 144.17 53 127.34 53 110 C35.84 110 18.68 110 1 110 Z " fill="#B9BABE" transform="translate(701,67)"/>
<path d="M0 0 C0.33 0 0.66 0 1 0 C1 16.5 1 33 1 50 C18.16 50 35.32 50 53 50 C53 50.66 53 51.32 53 52 C36.17 52 19.34 52 2 52 C2 68.83 2 85.66 2 103 C18.83 103 35.66 103 53 103 C53 103.66 53 104.32 53 105 C36.17 105 19.34 105 2 105 C2 121.83 2 138.66 2 156 C18.83 156 35.66 156 53 156 C53 156.33 53 156.66 53 157 C36.17 157 19.34 157 2 157 C2 174.16 2 191.32 2 209 C1.34 208.67 0.68 208.34 0 208 C0 191.5 0 175 0 158 C-16.83 158 -33.66 158 -51 158 C-51 174.83 -51 191.66 -51 209 C-51.66 209 -52.32 209 -53 209 C-53 192.17 -53 175.34 -53 158 C-69.83 158 -86.66 158 -104 158 C-104 157.34 -104 156.68 -104 156 C-87.17 156 -70.34 156 -53 156 C-53 139.17 -53 122.34 -53 105 C-69.83 105 -86.66 105 -104 105 C-104 104.34 -104 103.68 -104 103 C-87.17 103 -70.34 103 -53 103 C-53 86.17 -53 69.34 -53 52 C-52.34 52 -51.68 52 -51 52 C-51 68.83 -51 85.66 -51 103 C-34.17 103 -17.34 103 0 103 C0 86.17 0 69.34 0 52 C-16.5 52 -33 52 -50 52 C-50.33 51.34 -50.66 50.68 -51 50 C-34.17 50 -17.34 50 0 50 C0 33.5 0 17 0 0 Z M-51 105 C-51 121.83 -51 138.66 -51 156 C-34.17 156 -17.34 156 0 156 C0 139.17 0 122.34 0 105 C-16.83 105 -33.66 105 -51 105 Z " fill="#C1C2C6" transform="translate(384,336)"/>
<path d="M0 0 C-0.33 0.66 -0.66 1.32 -1 2 C-17.5 2 -34 2 -51 2 C-51 18.83 -51 35.66 -51 53 C-34.17 53 -17.34 53 0 53 C0 53.66 0 54.32 0 55 C-16.83 55 -33.66 55 -51 55 C-51 71.83 -51 88.66 -51 106 C-34.17 106 -17.34 106 0 106 C0 106.66 0 107.32 0 108 C-16.83 108 -33.66 108 -51 108 C-51 124.83 -51 141.66 -51 159 C-51.66 159 -52.32 159 -53 159 C-53 142.17 -53 125.34 -53 108 C-69.83 108 -86.66 108 -104 108 C-104 124.83 -104 141.66 -104 159 C-104.66 159 -105.32 159 -106 159 C-106 142.17 -106 125.34 -106 108 C-122.83 108 -139.66 108 -157 108 C-157 107.34 -157 106.68 -157 106 C-140.17 106 -123.34 106 -106 106 C-106 89.17 -106 72.34 -106 55 C-122.83 55 -139.66 55 -157 55 C-157 54.34 -157 53.68 -157 53 C-140.17 53 -123.34 53 -106 53 C-106 36.17 -106 19.34 -106 2 C-105.34 2 -104.68 2 -104 2 C-104 18.83 -104 35.66 -104 53 C-87.17 53 -70.34 53 -53 53 C-53 36.17 -53 19.34 -53 2 C-68.66181209 2.07914255 -68.66181209 2.07914255 -84.32348633 2.18017578 C-86.28466576 2.18601615 -88.24584762 2.19111278 -90.20703125 2.1953125 C-91.2280896 2.20554443 -92.24914795 2.21577637 -93.30114746 2.22631836 C-94.76240051 2.22668091 -94.76240051 2.22668091 -96.25317383 2.22705078 C-97.09922684 2.231492 -97.94527985 2.23593323 -98.81697083 2.24050903 C-101 2 -101 2 -104 0 C-69.29532504 -0.97290456 -34.705566 -0.92941222 0 0 Z M-104 55 C-104 71.83 -104 88.66 -104 106 C-87.17 106 -70.34 106 -53 106 C-53 89.17 -53 72.34 -53 55 C-69.83 55 -86.66 55 -104 55 Z " fill="#C0C1C5" transform="translate(437,69)"/>
<path d="M0 0 C0.66 0 1.32 0 2 0 C2 17.16 2 34.32 2 52 C18.83 52 35.66 52 53 52 C53 34.84 53 17.68 53 0 C53.33 0 53.66 0 54 0 C54.33 16.83 54.66 33.66 55 51 C71.83 51.33 88.66 51.66 106 52 C106 35.17 106 18.34 106 1 C106.33 1 106.66 1 107 1 C107.33 17.5 107.66 34 108 51 C124.83 51.33 141.66 51.66 159 52 C159 36.16 159 20.32 159 4 C159.33 4 159.66 4 160 4 C160 19.84 160 35.68 160 52 C185.245 51.505 185.245 51.505 211 51 C211 34.17 211 17.34 211 0 C211.66 0 212.32 0 213 0 C213 17.16 213 34.32 213 52 C218.94 52 224.88 52 231 52 C231 52.33 231 52.66 231 53 C215.5715354 54.1286824 200.26958898 53.93534366 184.8125 53.5625 C172.5303125 53.2840625 172.5303125 53.2840625 160 53 C160 70.16 160 87.32 160 105 C161.65 105 163.3 105 165 105 C165 105.33 165 105.66 165 106 C163.35 106 161.7 106 160 106 C160.01474869 107.20219681 160.02949738 108.40439362 160.04469299 109.64302063 C160.18586585 121.23808551 160.31823106 132.83322555 160.4429636 144.42847919 C160.5072736 150.38295908 160.57420132 156.33737998 160.64819336 162.29174805 C161.05894837 195.55078198 160.86446534 228.74914437 160 262 C159.67 262 159.34 262 159 262 C159 245.17 159 228.34 159 211 C141.84 211 124.68 211 107 211 C107 227.83 107 244.66 107 262 C106.67 262 106.34 262 106 262 C106 193.03 106 124.06 106 53 C88.51 53.33 71.02 53.66 53 54 C43.83151369 54.01295292 34.67694369 54.00631171 25.51171875 53.87890625 C23.30061078 53.85436689 21.08949481 53.83053946 18.87837219 53.80735779 C13.27796705 53.74686569 7.67771917 53.67724273 2.07745361 53.60510254 C-3.72498896 53.53218155 -9.52753633 53.46874228 -15.33007812 53.40429688 C-26.55350039 53.27835139 -37.77677872 53.14267529 -49 53 C-49 52.67 -49 52.34 -49 52 C-32.83 52 -16.66 52 0 52 C0 34.84 0 17.68 0 0 Z M107 53 C107 70.16 107 87.32 107 105 C124.16 105 141.32 105 159 105 C159 87.84 159 70.68 159 53 C141.84 53 124.68 53 107 53 Z M107 106 C107 122.83 107 139.66 107 157 C124.16 157 141.32 157 159 157 C159 140.17 159 123.34 159 106 C141.84 106 124.68 106 107 106 Z M107 159 C107 175.83 107 192.66 107 210 C124.16 210 141.32 210 159 210 C159 193.17 159 176.34 159 159 C141.84 159 124.68 159 107 159 Z " fill="#B1B2B6" transform="translate(595,282)"/>
<path d="M0 0 C17.16 0 34.32 0 52 0 C52 6.93 52 13.86 52 21 C34.84 21 17.68 21 0 21 C0 14.07 0 7.14 0 0 Z " fill="#EFF0F4" transform="translate(755,599)"/>
<path d="M0 0 C17.16 0 34.32 0 52 0 C52 6.93 52 13.86 52 21 C34.84 21 17.68 21 0 21 C0 14.07 0 7.14 0 0 Z " fill="#EFF0F4" transform="translate(438,599)"/>
<path d="M0 0 C17.16 0 34.32 0 52 0 C52 6.93 52 13.86 52 21 C34.84 21 17.68 21 0 21 C0 14.07 0 7.14 0 0 Z " fill="#EFF0F4" transform="translate(227,599)"/>
<path d="M0 0 C17.16 0 34.32 0 52 0 C52 6.93 52 13.86 52 21 C34.84 21 17.68 21 0 21 C0 14.07 0 7.14 0 0 Z " fill="#EFF0F4" transform="translate(174,599)"/>
<path d="M0 0 C17.16 0 34.32 0 52 0 C52 6.93 52 13.86 52 21 C34.84 21 17.68 21 0 21 C0 14.07 0 7.14 0 0 Z " fill="#EEEFF3" transform="translate(702,599)"/>
<path d="M0 0 C17.16 0 34.32 0 52 0 C52 6.93 52 13.86 52 21 C34.84 21 17.68 21 0 21 C0 14.07 0 7.14 0 0 Z " fill="#EFF0F4" transform="translate(491,599)"/>
<path d="M0 0 C16.83 0 33.66 0 51 0 C51 6.93 51 13.86 51 21 C34.17 21 17.34 21 0 21 C0 14.07 0 7.14 0 0 Z " fill="#F0F0F4" transform="translate(597,599)"/>
<path d="M0 0 C16.83 0 33.66 0 51 0 C51 6.93 51 13.86 51 21 C34.17 21 17.34 21 0 21 C0 14.07 0 7.14 0 0 Z " fill="#F0F1F5" transform="translate(333,599)"/>
<path d="M0 0 C16.83 0 33.66 0 51 0 C51 6.93 51 13.86 51 21 C34.17 21 17.34 21 0 21 C0 14.07 0 7.14 0 0 Z " fill="#EFF0F4" transform="translate(122,599)"/>
<path d="M0 0 C16.83 0 33.66 0 51 0 C51 6.93 51 13.86 51 21 C34.17 21 17.34 21 0 21 C0 14.07 0 7.14 0 0 Z " fill="#EFF0F4" transform="translate(69,599)"/>
<path d="M0 0 C16.83 0 33.66 0 51 0 C51 6.93 51 13.86 51 21 C34.17 21 17.34 21 0 21 C0 14.07 0 7.14 0 0 Z " fill="#EFF0F4" transform="translate(16,599)"/>
<path d="M0 0 C16.83 0 33.66 0 51 0 C51 6.93 51 13.86 51 21 C34.17 21 17.34 21 0 21 C0 14.07 0 7.14 0 0 Z " fill="#F0F1F5" transform="translate(650,599)"/>
<path d="M0 0 C16.83 0 33.66 0 51 0 C51 6.93 51 13.86 51 21 C34.17 21 17.34 21 0 21 C0 14.07 0 7.14 0 0 Z " fill="#F0F1F5" transform="translate(544,599)"/>
<path d="M0 0 C16.83 0 33.66 0 51 0 C51 6.93 51 13.86 51 21 C34.17 21 17.34 21 0 21 C0 14.07 0 7.14 0 0 Z " fill="#EFF0F4" transform="translate(386,599)"/>
<path d="M0 0 C16.83 0 33.66 0 51 0 C51 6.93 51 13.86 51 21 C34.17 21 17.34 21 0 21 C0 14.07 0 7.14 0 0 Z " fill="#F0F1F5" transform="translate(280,599)"/>
<path d="M0 0 C5.94 0 11.88 0 18 0 C18 17.16 18 34.32 18 52 C12.06 52 6.12 52 0 52 C0 34.84 0 17.68 0 0 Z " fill="#EFF0F4" transform="translate(808,546)"/>
<path d="M0 0 C5.94 0 11.88 0 18 0 C18 17.16 18 34.32 18 52 C12.06 52 6.12 52 0 52 C0 34.84 0 17.68 0 0 Z " fill="#EFEFF4" transform="translate(808,282)"/>
<path d="M0 0 C5.94 0 11.88 0 18 0 C18 17.16 18 34.32 18 52 C12.06 52 6.12 52 0 52 C0 34.84 0 17.68 0 0 Z " fill="#EFF0F4" transform="translate(808,229)"/>
<path d="M0 0 C5.94 0 11.88 0 18 0 C18 16.83 18 33.66 18 51 C12.06 51 6.12 51 0 51 C0 34.17 0 17.34 0 0 Z " fill="#EFF0F4" transform="translate(808,494)"/>
<path d="M0 0 C5.94 0 11.88 0 18 0 C18 16.83 18 33.66 18 51 C12.06 51 6.12 51 0 51 C0 34.17 0 17.34 0 0 Z " fill="#EFF0F4" transform="translate(808,441)"/>
<path d="M0 0 C5.94 0 11.88 0 18 0 C18 16.83 18 33.66 18 51 C12.06 51 6.12 51 0 51 C0 34.17 0 17.34 0 0 Z " fill="#EEEFF3" transform="translate(808,388)"/>
<path d="M0 0 C5.94 0 11.88 0 18 0 C18 16.83 18 33.66 18 51 C12.06 51 6.12 51 0 51 C0 34.17 0 17.34 0 0 Z " fill="#EFF0F4" transform="translate(808,335)"/>
<path d="M0 0 C5.94 0 11.88 0 18 0 C18 16.83 18 33.66 18 51 C12.06 51 6.12 51 0 51 C0 34.17 0 17.34 0 0 Z " fill="#EFF0F4" transform="translate(808,177)"/>
<path d="M0 0 C5.94 0 11.88 0 18 0 C18 16.83 18 33.66 18 51 C12.06 51 6.12 51 0 51 C0 34.17 0 17.34 0 0 Z " fill="#EFF0F4" transform="translate(808,124)"/>
<path d="M0 0 C5.94 0 11.88 0 18 0 C18 16.83 18 33.66 18 51 C12.06 51 6.12 51 0 51 C0 34.17 0 17.34 0 0 Z " fill="#EFF0F4" transform="translate(808,71)"/>
<path d="M0 0 C5.94 0 11.88 0 18 0 C18 16.83 18 33.66 18 51 C12.06 51 6.12 51 0 51 C0 34.17 0 17.34 0 0 Z " fill="#F0F1F4" transform="translate(808,18)"/>
<path d="M0 0 C17.16 0 34.32 0 52 0 C52 5.61 52 11.22 52 17 C34.84 17 17.68 17 0 17 C0 11.39 0 5.78 0 0 Z " fill="#EDEEF2" transform="translate(702,0)"/>
<path d="M0 0 C17.16 0 34.32 0 52 0 C52 5.61 52 11.22 52 17 C34.84 17 17.68 17 0 17 C0 11.39 0 5.78 0 0 Z " fill="#EDEEF2" transform="translate(491,0)"/>
<path d="M0 0 C17.16 0 34.32 0 52 0 C52 5.61 52 11.22 52 17 C34.84 17 17.68 17 0 17 C0 11.39 0 5.78 0 0 Z " fill="#EDEEF2" transform="translate(438,0)"/>
<path d="M0 0 C17.16 0 34.32 0 52 0 C52 5.61 52 11.22 52 17 C34.84 17 17.68 17 0 17 C0 11.39 0 5.78 0 0 Z " fill="#EDEEF2" transform="translate(227,0)"/>
<path d="M0 0 C17.16 0 34.32 0 52 0 C52 5.61 52 11.22 52 17 C34.84 17 17.68 17 0 17 C0 11.39 0 5.78 0 0 Z " fill="#EDEEF2" transform="translate(174,0)"/>
<path d="M0 0 C17.16 0 34.32 0 52 0 C52 5.28 52 10.56 52 16 C51 17 51 17 48.94358826 17.12025452 C48.03979935 17.11803391 47.13601044 17.11581329 46.20483398 17.11352539 C45.18385117 17.11344986 44.16286835 17.11337433 43.11094666 17.11329651 C42.0005452 17.10813522 40.89014374 17.10297394 39.74609375 17.09765625 C38.61551041 17.0962413 37.48492706 17.09482635 36.32008362 17.09336853 C32.69252935 17.08775019 29.06503576 17.07519458 25.4375 17.0625 C22.98502693 17.05748736 20.5325529 17.05292405 18.08007812 17.04882812 C12.05336187 17.0377748 6.02669124 17.02049788 0 17 C0 11.39 0 5.78 0 0 Z " fill="#EDEEF2" transform="translate(755,0)"/>
<path d="M0 0 C16.83 0 33.66 0 51 0 C51 5.61 51 11.22 51 17 C34.17 17 17.34 17 0 17 C0 11.39 0 5.78 0 0 Z " fill="#EEEFF3" transform="translate(650,0)"/>
<path d="M0 0 C16.83 0 33.66 0 51 0 C51 5.61 51 11.22 51 17 C34.17 17 17.34 17 0 17 C0 11.39 0 5.78 0 0 Z " fill="#EEEFF3" transform="translate(597,0)"/>
<path d="M0 0 C16.83 0 33.66 0 51 0 C51 5.61 51 11.22 51 17 C34.17 17 17.34 17 0 17 C0 11.39 0 5.78 0 0 Z " fill="#EEEFF3" transform="translate(544,0)"/>
<path d="M0 0 C16.83 0 33.66 0 51 0 C51 5.61 51 11.22 51 17 C34.17 17 17.34 17 0 17 C0 11.39 0 5.78 0 0 Z " fill="#EEEFF3" transform="translate(386,0)"/>
<path d="M0 0 C16.83 0 33.66 0 51 0 C51 5.61 51 11.22 51 17 C34.17 17 17.34 17 0 17 C0 11.39 0 5.78 0 0 Z " fill="#EEEFF3" transform="translate(333,0)"/>
<path d="M0 0 C16.83 0 33.66 0 51 0 C51 5.61 51 11.22 51 17 C34.17 17 17.34 17 0 17 C0 11.39 0 5.78 0 0 Z " fill="#EEEFF3" transform="translate(280,0)"/>
<path d="M0 0 C0.33 0 0.66 0 1 0 C1 15.84 1 31.68 1 48 C17.83 48 34.66 48 52 48 C52 48.33 52 48.66 52 49 C35.17 49 18.34 49 1 49 C1 65.83 1 82.66 1 100 C18.16 100 35.32 100 53 100 C53 100.66 53 101.32 53 102 C35.84 102 18.68 102 1 102 C1 118.83 1 135.66 1 153 C18.16 153 35.32 153 53 153 C53 153.66 53 154.32 53 155 C35.84 155 18.68 155 1 155 C1.185625 162.71375 1.37125 170.4275 1.5625 178.375 C2.13027116 204.9408455 1.76274198 231.4423967 1 258 C0.67 258 0.34 258 0 258 C0 241.17 0 224.34 0 207 C-16.83 207 -33.66 207 -51 207 C-51 224.16 -51 241.32 -51 259 C-51.66 258.67 -52.32 258.34 -53 258 C-53 241.17 -53 224.34 -53 207 C-69.83 207 -86.66 207 -104 207 C-104 224.16 -104 241.32 -104 259 C-104.66 259 -105.32 259 -106 259 C-106 241.84 -106 224.68 -106 207 C-106.66 206.67 -107.32 206.34 -108 206 C-105.10877404 205.16970357 -102.57452275 204.88505954 -99.57073975 204.91770935 C-98.24988373 204.92826859 -98.24988373 204.92826859 -96.90234375 204.93904114 C-95.94424805 204.95198715 -94.98615234 204.96493317 -93.99902344 204.97827148 C-92.98406799 204.98787903 -91.96911255 204.99748657 -90.92340088 205.00738525 C-87.56865481 205.04036588 -84.21403935 205.08070199 -80.859375 205.12109375 C-78.53339091 205.14539577 -76.207402 205.16923929 -73.88140869 205.19264221 C-67.75918067 205.25547494 -61.63703818 205.32454401 -55.51489258 205.39489746 C-49.26778052 205.46558815 -43.0206078 205.53040073 -36.7734375 205.59570312 C-24.51555834 205.72470505 -12.2577615 205.86029315 0 206 C-0.00607553 205.22995636 -0.01215105 204.45991272 -0.01841068 203.66653442 C-0.16779009 184.67276331 -0.30938409 165.67894755 -0.4429636 146.68505859 C-0.50774514 137.49866659 -0.57492217 128.31230509 -0.64819336 119.12597656 C-0.96378909 79.40135687 -1.2628916 39.71307154 0 0 Z " fill="#B7B8BC" transform="translate(173,22)"/>
<path d="M0 0 C16.83 0 33.66 0 51 0 C51 5.28 51 10.56 51 16 C34.17 16 17.34 16 0 16 C0 10.72 0 5.44 0 0 Z " fill="#EFF0F4" transform="translate(69,0)"/>
<path d="M0 0 C4.95 0 9.9 0 15 0 C15 17.16 15 34.32 15 52 C10.05 52 5.1 52 0 52 C0 34.84 0 17.68 0 0 Z " fill="#EEEDF2" transform="translate(0,546)"/>
<path d="M0 0 C4.95 0 9.9 0 15 0 C15 17.16 15 34.32 15 52 C10.05 52 5.1 52 0 52 C0 34.84 0 17.68 0 0 Z " fill="#EFEEF3" transform="translate(0,335)"/>
<path d="M0 0 C4.95 0 9.9 0 15 0 C15 17.16 15 34.32 15 52 C10.05 52 5.1 52 0 52 C0 34.84 0 17.68 0 0 Z " fill="#EEEDF2" transform="translate(0,282)"/>
<path d="M0 0 C4.95 0 9.9 0 15 0 C15 17.16 15 34.32 15 52 C10.05 52 5.1 52 0 52 C0 34.84 0 17.68 0 0 Z " fill="#EEEDF2" transform="translate(0,229)"/>
<path d="M0 0 C4.95 0 9.9 0 15 0 C15 17.16 15 34.32 15 52 C10.05 52 5.1 52 0 52 C0 34.84 0 17.68 0 0 Z " fill="#EEEDF2" transform="translate(0,18)"/>
<path d="M0 0 C4.62 0 9.24 0 14 0 C15 1 15 1 15.12025452 3.05641174 C15.1169236 4.41209511 15.1169236 4.41209511 15.11352539 5.79516602 C15.11344986 6.81614883 15.11337433 7.83713165 15.11329651 8.88905334 C15.10813522 9.9994548 15.10297394 11.10985626 15.09765625 12.25390625 C15.0962413 13.38448959 15.09482635 14.51507294 15.09336853 15.67991638 C15.08775019 19.30747065 15.07519458 22.93496424 15.0625 26.5625 C15.05748736 29.01497307 15.05292405 31.4674471 15.04882812 33.91992188 C15.0377748 39.94663813 15.02049788 45.97330876 15 52 C10.05 52 5.1 52 0 52 C0 34.84 0 17.68 0 0 Z " fill="#EFEEF3" transform="translate(0,493)"/>
<path d="M0 0 C4.95 0 9.9 0 15 0 C15 16.83 15 33.66 15 51 C10.05 51 5.1 51 0 51 C0 34.17 0 17.34 0 0 Z " fill="#F0EFF4" transform="translate(0,441)"/>
<path d="M0 0 C4.95 0 9.9 0 15 0 C15 16.83 15 33.66 15 51 C10.05 51 5.1 51 0 51 C0 34.17 0 17.34 0 0 Z " fill="#F0EFF4" transform="translate(0,388)"/>
<path d="M0 0 C4.95 0 9.9 0 15 0 C15 16.83 15 33.66 15 51 C10.05 51 5.1 51 0 51 C0 34.17 0 17.34 0 0 Z " fill="#EFEEF3" transform="translate(0,177)"/>
<path d="M0 0 C4.95 0 9.9 0 15 0 C15 16.83 15 33.66 15 51 C10.05 51 5.1 51 0 51 C0 34.17 0 17.34 0 0 Z " fill="#EFEEF3" transform="translate(0,124)"/>
<path d="M0 0 C4.95 0 9.9 0 15 0 C15 16.83 15 33.66 15 51 C10.05 51 5.1 51 0 51 C0 34.17 0 17.34 0 0 Z " fill="#EFEEF3" transform="translate(0,71)"/>
<path d="M0 0 C0.66 0 1.32 0 2 0 C2 16.83 2 33.66 2 51 C18.83 51 35.66 51 53 51 C53 34.5 53 18 53 1 C53.66 0.67 54.32 0.34 55 0 C55 17.16 55 34.32 55 52 C71.83 52 88.66 52 106 52 C106 35.17 106 18.34 106 1 C106.33 1 106.66 1 107 1 C107.33 17.5 107.66 34 108 51 C113.61 51.33 119.22 51.66 125 52 C125 52.33 125 52.66 125 53 C119.06 53 113.12 53 107 53 C107 69.83 107 86.66 107 104 C124.16 104 141.32 104 159 104 C158.67 104.66 158.34 105.32 158 106 C141.17 106 124.34 106 107 106 C107 122.83 107 139.66 107 157 C124.16 157 141.32 157 159 157 C159 157.66 159 158.32 159 159 C141.84 159 124.68 159 107 159 C106.67 159.66 106.34 160.32 106 161 C106 125.36 106 89.72 106 53 C88.51 53.33 71.02 53.66 53 54 C42.71898013 53.92764776 32.46139952 53.82802822 22.1875 53.5625 C19.77931879 53.50877439 17.37111511 53.45604653 14.96289062 53.40429688 C9.30828762 53.28077345 3.65406671 53.14595223 -2 53 C-1.01 52.505 -1.01 52.505 0 52 C0 34.84 0 17.68 0 0 Z " fill="#BBBBBF" transform="translate(67,282)"/>
<path d="M0 0 C0.66 0.33 1.32 0.66 2 1 C2 17.5 2 34 2 51 C7.94 51 13.88 51 20 51 C20 51.66 20 52.32 20 53 C14.06 53 8.12 53 2 53 C2 69.83 2 86.66 2 104 C7.94 104 13.88 104 20 104 C20 104.66 20 105.32 20 106 C14.06 106 8.12 106 2 106 C2 122.83 2 139.66 2 157 C7.94 157 13.88 157 20 157 C20 157.66 20 158.32 20 159 C14.06 159 8.12 159 2 159 C2 175.83 2 192.66 2 210 C1.67 210 1.34 210 1 210 C0.67 193.17 0.34 176.34 0 159 C-24.75 158.505 -24.75 158.505 -50 158 C-50 157.67 -50 157.34 -50 157 C-33.5 157 -17 157 0 157 C0 140.17 0 123.34 0 106 C-16.83 106 -33.66 106 -51 106 C-51 105.34 -51 104.68 -51 104 C-34.17 104 -17.34 104 0 104 C0 87.17 0 70.34 0 53 C-14.9134704 53.03952926 -14.9134704 53.03952926 -29.8269043 53.09008789 C-31.70100854 53.09300939 -33.57511341 53.0955574 -35.44921875 53.09765625 C-36.41686157 53.10277222 -37.38450439 53.10788818 -38.38146973 53.11315918 C-39.31479126 53.11328003 -40.24811279 53.11340088 -41.2097168 53.11352539 C-42.4188398 53.11685631 -42.4188398 53.11685631 -43.65238953 53.12025452 C-46.18086474 52.99073534 -48.53226148 52.55273825 -51 52 C-51 51.67 -51 51.34 -51 51 C-34.17 51 -17.34 51 0 51 C0 34.17 0 17.34 0 0 Z " fill="#C5C6CA" transform="translate(806,335)"/>
<path d="M0 0 C0.33 0 0.66 0 1 0 C1 35.31 1 70.62 1 107 C11.81394531 106.91621094 22.62789062 106.83242187 33.76953125 106.74609375 C40.73762588 106.69521052 47.70572028 106.64468362 54.67382812 106.59570312 C65.66515424 106.51837924 76.65645858 106.43980756 87.64770508 106.35180664 C128.45011684 106.02643885 169.20764728 105.8074179 210 107 C210 107.33 210 107.66 210 108 C193.17 108 176.34 108 159 108 C159 124.83 159 141.66 159 159 C158.67 159 158.34 159 158 159 C158 142.17 158 125.34 158 108 C132.755 108.495 132.755 108.495 107 109 C106.67 125.5 106.34 142 106 159 C105.67 159 105.34 159 105 159 C105 142.17 105 125.34 105 108 C88.17 108 71.34 108 54 108 C54 125.16 54 142.32 54 160 C53.34 160 52.68 160 52 160 C52 142.84 52 125.68 52 108 C35.17 108 18.34 108 1 108 C1 124.83 1 141.66 1 159 C0.67 159 0.34 159 0 159 C-0.33 142.5 -0.66 126 -1 109 C-25.75 108.505 -25.75 108.505 -51 108 C-51 107.67 -51 107.34 -51 107 C-34.17 107 -17.34 107 0 107 C0 71.69 0 36.38 0 0 Z " fill="#B3B4B8" transform="translate(543,121)"/>
<path d="M0 0 C0.66 0 1.32 0 2 0 C2 17.16 2 34.32 2 52 C11.57 52 21.14 52 31 52 C31 52.33 31 52.66 31 53 C3.94 53 -23.12 53 -51 53 C-51 87.32 -51 121.64 -51 157 C-34.83 157 -18.66 157 -2 157 C-1.34 157.66 -0.68 158.32 0 159 C-16.83 159 -33.66 159 -51 159 C-51 175.5 -51 192 -51 209 C-51.33 209 -51.66 209 -52 209 C-52 192.5 -52 176 -52 159 C-56.95 159 -61.9 159 -67 159 C-67 158.34 -67 157.68 -67 157 C-62.05 157 -57.1 157 -52 157 C-52 140.17 -52 123.34 -52 106 C-56.95 106 -61.9 106 -67 106 C-67 105.34 -67 104.68 -67 104 C-62.05 104 -57.1 104 -52 104 C-52 87.17 -52 70.34 -52 53 C-56.95 53 -61.9 53 -67 53 C-67 52.67 -67 52.34 -67 52 C-62.05 52 -57.1 52 -52 52 C-52 35.17 -52 18.34 -52 1 C-51.67 1 -51.34 1 -51 1 C-51 17.5 -51 34 -51 51 C-34.17 51 -17.34 51 0 51 C0 34.17 0 17.34 0 0 Z " fill="#BBBBBF" transform="translate(67,18)"/>
<path d="M0 0 C0.66 0 1.32 0 2 0 C2 17.16 2 34.32 2 52 C18.83 52 35.66 52 53 52 C53 35.17 53 18.34 53 1 C53.66 0.67 54.32 0.34 55 0 C55 17.16 55 34.32 55 52 C59.62 52 64.24 52 69 52 C69 52.33 69 52.66 69 53 C64.38 53 59.76 53 55 53 C55 59.93 55 66.86 55 74 C54.34 74 53.68 74 53 74 C53 67.07 53 60.14 53 53 C36.17 53 19.34 53 2 53 C2 59.93 2 66.86 2 74 C1.34 74 0.68 74 0 74 C0 67.07 0 60.14 0 53 C-16.83 53 -33.66 53 -51 53 C-51 59.93 -51 66.86 -51 74 C-51.33 74 -51.66 74 -52 74 C-52 67.07 -52 60.14 -52 53 C-52.66 52.67 -53.32 52.34 -54 52 C-53.34 52 -52.68 52 -52 52 C-52 35.17 -52 18.34 -52 1 C-51.67 1 -51.34 1 -51 1 C-51 17.83 -51 34.66 -51 52 C-34.17 52 -17.34 52 0 52 C0 34.84 0 17.68 0 0 Z " fill="#B9BABE" transform="translate(331,546)"/>
<path d="M0 0 C0.66 0 1.32 0 2 0 C2 17.16 2 34.32 2 52 C18.83 52 35.66 52 53 52 C53 34.84 53 17.68 53 0 C53.66 0 54.32 0 55 0 C55 17.16 55 34.32 55 52 C72.16 51.67 89.32 51.34 107 51 C108.25050287 53.50100574 108.02993449 55.00343052 107.87890625 57.7890625 C107.83056641 58.73007812 107.78222656 59.67109375 107.73242188 60.640625 C107.67634766 61.62546875 107.62027344 62.6103125 107.5625 63.625 C107.51029297 64.61757813 107.45808594 65.61015625 107.40429688 66.6328125 C107.27441051 69.08884568 107.13943836 71.5444936 107 74 C106.67 74 106.34 74 106 74 C106 67.07 106 60.14 106 53 C89.17 53 72.34 53 55 53 C55 59.93 55 66.86 55 74 C54.34 74 53.68 74 53 74 C53 67.07 53 60.14 53 53 C36.17 53 19.34 53 2 53 C2 59.93 2 66.86 2 74 C1.34 74 0.68 74 0 74 C0 67.07 0 60.14 0 53 C-14.85 53 -29.7 53 -45 53 C-45 52.67 -45 52.34 -45 52 C-30.15 52 -15.3 52 0 52 C0 34.84 0 17.68 0 0 Z " fill="#B9BABE" transform="translate(595,546)"/>
<path d="M0 0 C0.33 0 0.66 0 1 0 C1 16.83 1 33.66 1 51 C17.17 51 33.34 51 50 51 C50 51.33 50 51.66 50 52 C33.83 52 17.66 52 1 52 C1 69.16 1 86.32 1 104 C1.66 104.33 2.32 104.66 3 105 C2.34 105 1.68 105 1 105 C1.01474869 106.20219681 1.02949738 107.40439362 1.04469299 108.64302063 C1.18586585 120.23808551 1.31823106 131.83322555 1.4429636 143.42847919 C1.5072736 149.38295908 1.57420132 155.33737998 1.64819336 161.29174805 C2.05894837 194.55078198 1.86446534 227.74914437 1 261 C0.67 261 0.34 261 0 261 C-0.33 244.5 -0.66 228 -1 211 C-5.62 210.67 -10.24 210.34 -15 210 C-15 209.67 -15 209.34 -15 209 C-10.05 209 -5.1 209 0 209 C0 192.17 0 175.34 0 158 C-4.95 158 -9.9 158 -15 158 C-15 157.34 -15 156.68 -15 156 C-10.05 156 -5.1 156 0 156 C0 139.17 0 122.34 0 105 C-4.95 105 -9.9 105 -15 105 C-15 104.67 -15 104.34 -15 104 C-10.05 104 -5.1 104 0 104 C0 86.84 0 69.68 0 52 C-4.95 52 -9.9 52 -15 52 C-15 51.67 -15 51.34 -15 51 C-10.05 51 -5.1 51 0 51 C0 34.17 0 17.34 0 0 Z " fill="#AFAEB3" transform="translate(15,283)"/>
<path d="M0 0 C5.94 0 11.88 0 18 0 C18 6.93 18 13.86 18 21 C12.06 21 6.12 21 0 21 C0 14.07 0 7.14 0 0 Z " fill="#EFF0F4" transform="translate(808,599)"/>
<path d="M0 0 C0.33 0 0.66 0 1 0 C1.94693564 34.72526796 1.85881709 69.26562003 1 104 C17.83 104 34.66 104 52 104 C52 104.33 52 104.66 52 105 C35.17 105 18.34 105 1 105 C1 121.83 1 138.66 1 156 C18.16 156 35.32 156 53 156 C53 156.66 53 157.32 53 158 C35.84 158 18.68 158 1 158 C1 173.84 1 189.68 1 206 C0.67 206 0.34 206 0 206 C-0.15619696 186.67137664 -0.30409925 167.34270519 -0.4429636 148.01394939 C-0.50766673 139.03278563 -0.57480301 130.05165395 -0.64819336 121.07055664 C-0.97679561 80.69458875 -1.17186551 40.36624843 0 0 Z " fill="#B3B4B8" transform="translate(437,283)"/>
<path d="M0 0 C0.66 0 1.32 0 2 0 C2 17.16 2 34.32 2 52 C18.83 52 35.66 52 53 52 C53 34.84 53 17.68 53 0 C53.66 0 54.32 0 55 0 C55 17.16 55 34.32 55 52 C57.31 52 59.62 52 62 52 C62 52.33 62 52.66 62 53 C59.69 53 57.38 53 55 53 C55 59.93 55 66.86 55 74 C54.34 74 53.68 74 53 74 C53 67.07 53 60.14 53 53 C36.17 53 19.34 53 2 53 C2 59.93 2 66.86 2 74 C1.34 74 0.68 74 0 74 C-1.00317775 57.5035316 -0.96706319 41.14178219 -0.5625 24.625 C-0.50908951 22.220067 -0.45635164 19.81511897 -0.40429688 17.41015625 C-0.27725085 11.60657535 -0.14203309 5.8032325 0 0 Z " fill="#BEBFC3" transform="translate(67,546)"/>
<path d="M0 0 C4.95 0 9.9 0 15 0 C15 6.93 15 13.86 15 21 C10.05 21 5.1 21 0 21 C0 14.07 0 7.14 0 0 Z " fill="#F0EFF4" transform="translate(0,599)"/>
<path d="M0 0 C5.94 0 11.88 0 18 0 C18 5.61 18 11.22 18 17 C12.06 17 6.12 17 0 17 C0 11.39 0 5.78 0 0 Z " fill="#EEEFF3" transform="translate(808,0)"/>
<path d="M0 0 C0.66 0 1.32 0 2 0 C2 17.16 2 34.32 2 52 C18.83 52 35.66 52 53 52 C53 34.84 53 17.68 53 0 C53.33 0 53.66 0 54 0 C54.33 17.49 54.66 34.98 55 53 C52.69545841 54.1522708 51.44764366 54.11060048 48.88717651 54.08229065 C48.02618347 54.07525116 47.16519043 54.06821167 46.27810669 54.06095886 C44.85822952 54.04153984 44.85822952 54.04153984 43.40966797 54.02172852 C42.41451172 54.01212097 41.41935547 54.00251343 40.39404297 53.99261475 C37.09335434 53.95954276 33.79279471 53.91924167 30.4921875 53.87890625 C28.20818542 53.85461315 25.92417852 53.83076919 23.64016724 53.80735779 C17.61983769 53.74443629 11.59959313 53.67539252 5.5793457 53.60510254 C-0.56034465 53.53449185 -6.70009539 53.46963145 -12.83984375 53.40429688 C-24.89329554 53.2751806 -36.94666541 53.13960085 -49 53 C-49 52.67 -49 52.34 -49 52 C-32.83 52 -16.66 52 0 52 C0 34.84 0 17.68 0 0 Z " fill="#B7B7BB" transform="translate(595,282)"/>
<path d="M0 0 C4.95 0 9.9 0 15 0 C15 5.61 15 11.22 15 17 C10.05 17 5.1 17 0 17 C0 11.39 0 5.78 0 0 Z " fill="#EEEDF2" transform="translate(0,0)"/>
<path d="M0 0 C0.33 0 0.66 0 1 0 C1 16.5 1 33 1 50 C7.27 50 13.54 50 20 50 C20 50.66 20 51.32 20 52 C14.06 52.33 8.12 52.66 2 53 C1.67 69.5 1.34 86 1 103 C0.67 103 0.34 103 0 103 C0 86.17 0 69.34 0 52 C-16.5 52 -33 52 -50 52 C-50.33 51.34 -50.66 50.68 -51 50 C-34.17 50 -17.34 50 0 50 C0 33.5 0 17 0 0 Z " fill="#CBCCD0" transform="translate(806,19)"/>
<path d="M0 0 C0.33 0 0.66 0 1 0 C1 16.5 1 33 1 50 C6.94 50 12.88 50 19 50 C19 50.66 19 51.32 19 52 C3.57387951 53.12851091 -11.73345982 52.93687836 -27.1875 52.5625 C-29.60610565 52.50912097 -32.02472553 52.45638249 -34.44335938 52.40429688 C-40.29575706 52.27689666 -46.14793105 52.14166227 -52 52 C-52 51.34 -52 50.68 -52 50 C-34.84 50 -17.68 50 0 50 C0 33.5 0 17 0 0 Z " fill="#C4C5C9" transform="translate(807,72)"/>
<path d="M0 0 C0.33 0 0.66 0 1 0 C1.20243331 14.43731679 1.38934499 28.87480194 1.5625 43.3125 C1.57523327 44.37342739 1.58796654 45.43435478 1.60108566 46.52743149 C1.98660712 79.04100397 2.09159843 111.49709995 1 144 C0.67 144 0.34 144 0 144 C-0.33 127.5 -0.66 111 -1 94 C-7.93 93.505 -7.93 93.505 -15 93 C-15 92.67 -15 92.34 -15 92 C-10.05 92 -5.1 92 0 92 C0 75.17 0 58.34 0 41 C-4.95 41 -9.9 41 -15 41 C-15 40.34 -15 39.68 -15 39 C-10.05 39 -5.1 39 0 39 C0 26.13 0 13.26 0 0 Z " fill="#B5B4B9" transform="translate(15,400)"/>
<path d="M0 0 C0.33 0 0.66 0 1 0 C1 16.5 1 33 1 50 C6.94 50 12.88 50 19 50 C19 50.66 19 51.32 19 52 C13.06 52 7.12 52 1 52 C1 68.83 1 85.66 1 103 C0.67 103 0.34 103 0 103 C-0.33 86.17 -0.66 69.34 -1 52 C-25.75 51.505 -25.75 51.505 -51 51 C-51 50.67 -51 50.34 -51 50 C-34.17 50 -17.34 50 0 50 C0 33.5 0 17 0 0 Z " fill="#B8B9BD" transform="translate(807,442)"/>
<path d="M0 0 C2.34048098 0.05334383 4.68097583 0.1060829 7.02148438 0.15820312 C12.70200152 0.28600032 18.3823023 0.42124858 24.0625 0.5625 C24.0625 0.8925 24.0625 1.2225 24.0625 1.5625 C7.8925 1.5625 -8.2775 1.5625 -24.9375 1.5625 C-24.9375 18.3925 -24.9375 35.2225 -24.9375 52.5625 C-25.2675 52.5625 -25.5975 52.5625 -25.9375 52.5625 C-25.9375 35.7325 -25.9375 18.9025 -25.9375 1.5625 C-30.8875 1.5625 -35.8375 1.5625 -40.9375 1.5625 C-40.9375 1.2325 -40.9375 0.9025 -40.9375 0.5625 C-27.28557801 -0.78651527 -13.69402877 -0.34077307 0 0 Z " fill="#AFAEB3" transform="translate(40.9375,227.4375)"/>
<path d="M0 0 C0.33 0 0.66 0 1 0 C1 5.61 1 11.22 1 17 C6.94 17 12.88 17 19 17 C19 17.33 19 17.66 19 18 C13.06 18 7.12 18 1 18 C1 34.83 1 51.66 1 69 C0.67 69 0.34 69 0 69 C-0.33 52.5 -0.66 36 -1 19 C-8.26 18.67 -15.52 18.34 -23 18 C-23 17.67 -23 17.34 -23 17 C-15.74 16.67 -8.48 16.34 -1 16 C-0.67 10.72 -0.34 5.44 0 0 Z " fill="#B5B6BA" transform="translate(807,0)"/>
<path d="M0 0 C0.33 0 0.66 0 1 0 C1 16.5 1 33 1 50 C6.94 50 12.88 50 19 50 C19 50.66 19 51.32 19 52 C9.595 52.495 9.595 52.495 0 53 C-0.9971257 50.00862289 -1.09229826 48.18249007 -1.02172852 45.06958008 C-1.00163223 44.06876907 -0.98153595 43.06795807 -0.96083069 42.03681946 C-0.93379562 40.95861435 -0.90676056 39.88040924 -0.87890625 38.76953125 C-0.85529526 37.66397385 -0.83168427 36.55841644 -0.80735779 35.4193573 C-0.73070304 31.88360817 -0.64668612 28.34807705 -0.5625 24.8125 C-0.50928115 22.41732842 -0.45654074 20.02214617 -0.40429688 17.62695312 C-0.27508539 11.7511668 -0.13982681 5.87554277 0 0 Z " fill="#BCBDC1" transform="translate(807,72)"/>
</svg>
